<svg width="351" height="372" viewBox="0 0 351 372" fill="none" xmlns="http://www.w3.org/2000/svg">
<rect x="7.5" y="48.5" width="336" height="316" rx="158" fill="black" stroke="black" stroke-width="15"/>
<rect x="7.5" y="7.5" width="336" height="316" rx="158" fill="#D96558" stroke="black" stroke-width="15"/>
<path d="M101 134.135V154.364C101 163.068 109.92 168.923 117.913 165.478C122.342 163.569 125.216 159.206 125.216 154.382C125.216 145.191 135.073 139.367 143.124 143.801L148.75 146.899C152.059 148.721 156.047 148.826 159.447 147.181C167.995 143.045 168.273 130.97 159.924 126.445L135.838 113.391C129.169 109.776 121.168 109.589 114.337 112.886C106.182 116.823 101 125.08 101 134.135Z" fill="black"/>
<path d="M173.65 82.5946L162.725 88.3328C153.542 93.1563 153.516 106.295 162.68 111.155C166.413 113.134 170.878 113.161 174.634 111.226L175.808 110.621C179.94 108.493 184.86 108.556 188.936 110.791L189.343 111.015C193.112 113.081 197.654 113.167 201.499 111.245C211.089 106.45 211.169 92.793 201.636 87.8849L191.221 82.5226C185.703 79.6813 179.145 79.7082 173.65 82.5946Z" fill="black"/>
<path d="M235.569 112.239L222.742 118.374C218.481 120.412 218.152 126.353 222.163 128.848C226.226 131.376 225.822 137.414 221.46 139.38L116.12 186.833C106.917 190.979 101 200.134 101 210.227V213.521C101 221.063 105.196 227.979 111.884 231.463L115.001 233.086C118.795 235.062 123.306 235.099 127.132 233.186L140.571 226.467C144.359 224.573 144.507 219.221 140.83 217.12C137.088 214.982 137.325 209.509 141.238 207.702L248.478 158.18C257.331 154.092 263 145.23 263 135.479V133.393C263 125.272 258.445 117.838 251.211 114.15L247.767 112.394C243.947 110.446 239.437 110.389 235.569 112.239Z" fill="black"/>
<path d="M263.002 210.125V190.529C263.002 181.708 253.908 175.786 245.787 179.227C241.313 181.123 238.368 185.527 238.368 190.385C238.368 199.471 228.727 205.315 220.671 201.112L214.856 198.078C211.529 196.342 207.571 196.308 204.214 197.986C195.663 202.262 195.572 214.431 204.058 218.834L228.127 231.32C235.066 234.92 243.327 234.896 250.244 231.255C258.09 227.126 263.002 218.99 263.002 210.125Z" fill="black"/>
<path d="M175.306 235.774L172.295 234.519C169.171 233.218 165.641 233.305 162.585 234.76C153.721 238.981 153.475 251.509 162.167 256.075L173.914 262.245C179.247 265.046 185.607 265.085 190.974 262.349L203.585 255.92C212.34 251.456 212.17 238.888 203.297 234.663C200.362 233.266 196.982 233.135 193.948 234.302L189.607 235.972C184.992 237.747 179.87 237.676 175.306 235.774Z" fill="black"/>
</svg>
