<svg width="351" height="372" viewBox="0 0 351 372" fill="none" xmlns="http://www.w3.org/2000/svg">
<rect x="7.5" y="48.5" width="336" height="316" rx="158" fill="black" stroke="black" stroke-width="15"/>
<rect x="7.5" y="7.5" width="336" height="316" rx="158" fill="#D96558" stroke="black" stroke-width="15"/>
<path d="M269.63 96.3272C268.957 94.3567 268.152 93.8382 266.896 93.3456V93.3456C262.187 91.612 257.134 94.7072 252.41 96.4001C220.769 107.739 93.5988 153.481 85.3638 159.176C83.3376 160.576 82.6587 161.405 82.3219 162.365V162.365C80.4749 167.605 88.4088 169.884 93.6947 171.595L126.145 182.098C127.526 182.545 129.146 183.426 130.366 182.64V182.64C140.025 176.573 227.542 121.71 232.589 119.869C233.385 119.636 233.975 119.895 233.819 120.44C231.813 127.44 156.905 193.578 155.798 194.556C155.764 194.586 155.771 194.585 155.744 194.621C155.661 194.732 155.472 195 155.332 195.302C155.322 195.325 155.294 195.335 155.272 195.323V195.323C155.244 195.308 155.211 195.327 155.208 195.358L151.298 236.634C151.268 236.954 151.231 237.269 151.21 237.589C151.064 239.789 151.121 248.404 162.494 237.114V237.114C175.152 224.53 195.066 223.667 209.496 234.174C214.698 237.961 219.075 241.29 221.902 243.699C225.307 246.603 228.155 247.07 230.5 246.992V246.992C238.33 246.708 239.682 235.945 241.563 228.339C249.064 198.009 268.94 116.721 269.753 103.691C269.852 102.109 269.988 101.124 269.998 100.035C270.017 98.5311 269.876 97.0273 269.63 96.3272Z" fill="black"/>
</svg>
