<svg width="351" height="372" viewBox="0 0 351 372" fill="none" xmlns="http://www.w3.org/2000/svg">
<rect x="7.5" y="48.5" width="336" height="316" rx="158" fill="black" stroke="black" stroke-width="15"/>
<rect x="7.5" y="7.5" width="336" height="316" rx="158" fill="#D96558" stroke="black" stroke-width="15"/>
<path d="M225.688 252.436C222.778 252.436 220.054 251.004 218.404 248.606L178.026 189.94L171.9 181.044L131.524 122.381C127.486 116.514 131.686 108.524 138.809 108.524V108.524C141.719 108.524 144.443 109.956 146.093 112.354L183.823 167.172L189.948 176.069L232.973 238.579C237.011 244.446 232.811 252.436 225.688 252.436V252.436ZM251.386 246.331L197.209 167.623L191.084 158.721L152.329 102.418V102.418C150.319 99.4973 146.999 97.7525 143.453 97.7525H121.983C113.308 97.7525 108.192 107.483 113.11 114.629V114.629L164.639 189.499L170.764 198.391L212.167 258.547V258.547C214.178 261.465 217.495 263.208 221.039 263.208H242.513C251.188 263.208 256.304 253.477 251.386 246.331V246.331Z" fill="black"/>
<path d="M167.669 186.186C169.901 183.588 173.988 183.806 175.931 186.627V186.627C177.275 188.579 177.135 191.193 175.59 192.991L170.95 198.391L116.794 261.393C115.805 262.545 114.362 263.208 112.843 263.208V263.208C108.388 263.208 105.988 257.98 108.891 254.601L164.825 189.499L167.669 186.186Z" fill="black"/>
<path d="M246.099 97.7522C250.555 97.7522 252.957 102.983 250.052 106.362L197.394 167.623L194.551 170.929C192.318 173.526 188.232 173.307 186.289 170.486V170.486C184.945 168.533 185.085 165.919 186.63 164.12L191.269 158.721L231.952 111.369L242.154 99.5574C243.144 98.4111 244.584 97.7522 246.099 97.7522V97.7522Z" fill="black"/>
</svg>
